<?xml version="1.0" encoding="UTF-8" standalone="no"?>
<!-- Created with Inkscape (http://www.inkscape.org/) -->

<svg
   width="500mm"
   height="150mm"
   viewBox="0 0 500 150"
   version="1.1"
   id="svg1"
   inkscape:version="1.4 (e7c3feb100, 2024-10-09)"
   sodipodi:docname="julia-on-tpu.svg"
   xmlns:inkscape="http://www.inkscape.org/namespaces/inkscape"
   xmlns:sodipodi="http://sodipodi.sourceforge.net/DTD/sodipodi-0.dtd"
   xmlns="http://www.w3.org/2000/svg"
   xmlns:svg="http://www.w3.org/2000/svg">
  <sodipodi:namedview
     id="namedview1"
     pagecolor="#ffffff"
     bordercolor="#000000"
     borderopacity="0.25"
     inkscape:showpageshadow="2"
     inkscape:pageopacity="0.0"
     inkscape:pagecheckerboard="0"
     inkscape:deskcolor="#d1d1d1"
     inkscape:document-units="mm"
     showguides="true"
     inkscape:zoom="0.40189418"
     inkscape:cx="879.58477"
     inkscape:cy="380.69723"
     inkscape:window-width="1536"
     inkscape:window-height="891"
     inkscape:window-x="0"
     inkscape:window-y="0"
     inkscape:window-maximized="1"
     inkscape:current-layer="layer1"
     showgrid="false">
    <sodipodi:guide
       position="143.42793,74.999999"
       orientation="0,1"
       id="guide7"
       inkscape:locked="false"
       inkscape:label=""
       inkscape:color="rgb(0,134,229)" />
    <sodipodi:guide
       position="74.999999,75.009224"
       orientation="-1,0"
       id="guide8"
       inkscape:locked="false"
       inkscape:label=""
       inkscape:color="rgb(0,134,229)" />
    <sodipodi:guide
       position="9.9999998,111.59357"
       orientation="-1,0"
       id="guide9"
       inkscape:locked="false"
       inkscape:label=""
       inkscape:color="rgb(0,134,229)" />
    <sodipodi:guide
       position="140,-21.775861"
       orientation="-1,0"
       id="guide10"
       inkscape:locked="false"
       inkscape:label=""
       inkscape:color="rgb(0,134,229)" />
    <sodipodi:guide
       position="-26.070784,140"
       orientation="0,1"
       id="guide11"
       inkscape:locked="false"
       inkscape:label=""
       inkscape:color="rgb(0,134,229)" />
    <sodipodi:guide
       position="-18.853448,9.9999999"
       orientation="0,1"
       id="guide12"
       inkscape:locked="false"
       inkscape:label=""
       inkscape:color="rgb(0,134,229)" />
    <sodipodi:guide
       position="10.000001,115"
       orientation="0,-1"
       id="guide14"
       inkscape:locked="false" />
    <sodipodi:guide
       position="167.23128,77.750383"
       orientation="1,0"
       id="guide4"
       inkscape:locked="false" />
    <sodipodi:guide
       position="153.61564,35.000004"
       orientation="0,-1"
       id="guide5"
       inkscape:locked="false" />
    <sodipodi:guide
       position="489.99997,145"
       orientation="1,0"
       id="guide6"
       inkscape:locked="false" />
  </sodipodi:namedview>
  <defs
     id="defs1">
    <rect
       x="566.92914"
       y="132.28346"
       width="1248.3116"
       height="265.44691"
       id="rect4" />
    <rect
       x="-476.49359"
       y="328.44467"
       width="1287.8881"
       height="178.15018"
       id="rect3" />
    <rect
       x="61.442005"
       y="672.10028"
       width="679.62384"
       height="85.266457"
       id="rect13-6" />
    <rect
       x="-476.49359"
       y="328.44467"
       width="765.12677"
       height="121.92264"
       id="rect3-9" />
    <rect
       x="-476.49359"
       y="328.44467"
       width="1238.3718"
       height="226.34889"
       id="rect3-7" />
    <mask
       maskUnits="userSpaceOnUse"
       id="mask5">
      <rect
         style="fill:#ffffff;fill-opacity:1;stroke:none;stroke-width:0.229727;stroke-linejoin:round"
         id="rect6"
         width="16.474625"
         height="16.474627"
         x="9.1172934"
         y="10.76999" />
    </mask>
  </defs>
  <g
     inkscape:groupmode="layer"
     id="layer2"
     inkscape:label="Background" />
  <g
     inkscape:label="Layer 1"
     inkscape:groupmode="layer"
     id="layer1"
     transform="translate(-26.699916,-29.958119)"
     style="display:inline">
    <rect
       style="fill:#389826;fill-opacity:1;stroke:none;stroke-width:1.64122;stroke-linejoin:round;stroke-dasharray:none;stroke-opacity:1"
       id="rect14"
       width="130"
       height="130.00002"
       x="36.699917"
       y="39.958118" />
    <rect
       style="display:inline;fill:#389826;fill-opacity:1;stroke:none;stroke-width:0.685672;stroke-linejoin:round;stroke-dasharray:none;stroke-opacity:1"
       id="rect14-6"
       width="22.690451"
       height="130.00002"
       x="494.00943"
       y="39.958118" />
    <path
       id="rect2"
       style="fill:#ffffff;fill-opacity:1;stroke-width:13.5945"
       d="M 75.554364,54.958119 V 65.78896 C 68.945622,66.955423 63.685595,72.206341 62.519582,78.812556 H 51.699918 V 89.270849 H 62.273522 V 99.72879 H 51.699918 v 10.45831 h 10.573604 v 10.4583 H 51.699918 v 10.4583 h 10.831214 c 1.166249,6.60759 6.41565,11.85661 13.023232,13.02287 v 10.83155 h 10.458292 v -10.57359 h 10.457929 v 10.57359 h 10.458305 v -10.57359 h 10.4583 v 10.57359 h 10.45829 v -10.83155 c 6.60774,-1.16614 11.85734,-6.41518 13.0236,-13.02287 h 10.83083 v -10.4583 h -10.57322 v -10.4583 h 10.57322 V 99.72879 H 141.12669 V 89.270849 h 10.57322 V 78.812556 h -10.8193 C 139.71459,72.206252 134.45435,66.955278 127.84548,65.78896 V 54.958119 h -10.45829 v 10.573229 h -10.4583 V 54.958119 H 96.470585 V 65.531348 H 86.012656 V 54.958119 Z m 2.763119,19.704916 h 46.765277 c 3.90839,0 6.91189,3.00387 6.91189,6.912266 v 46.765279 c 0,3.9084 -3.0035,6.91227 -6.91189,6.91227 H 78.317483 c -3.908399,0 -6.912275,-3.00387 -6.912275,-6.91227 V 81.575301 c 0,-3.908396 3.003876,-6.912266 6.912275,-6.912266 z" />
    <path
       style="font-weight:bold;font-size:169.921px;line-height:1.05;font-family:'DejaVu Sans';-inkscape-font-specification:'DejaVu Sans Bold';white-space:pre;stroke-width:7.55906;stroke-linejoin:round"
       d="m -460.89592,344.75706 h 31.94315 V 456.5996 q 0,23.14842 -12.61132,34.59817 -12.52836,11.44976 -37.99991,11.44976 h -6.4716 v -24.14405 h 4.97815 q 9.95631,0 15.01743,-5.55894 5.1441,-5.55894 5.1441,-16.34494 z m 60.89942,87.69849 v -56.75096 h 29.86893 v 9.29255 q 0,7.5502 -0.083,18.99996 -0.083,11.36679 -0.083,15.18337 0,11.20085 0.58078,16.179 0.58079,4.89519 1.99126,7.13536 1.82533,2.90392 4.72925,4.48034 2.98689,1.57641 6.80348,1.57641 9.29255,0 14.60258,-7.13535 5.31004,-7.13536 5.31004,-19.82965 v -45.88199 h 29.70298 v 92.92555 h -29.70298 v -13.44102 q -6.72051,8.13099 -14.27071,12.03054 -7.46724,3.81659 -16.51088,3.81659 -16.09604,0 -24.5589,-9.87334 -8.37989,-9.87334 -8.37989,-28.70736 z M -278.03172,339.53 h 29.70299 v 129.10014 h -29.70299 z m 58.24442,36.17459 h 29.70298 v 92.92555 h -29.70298 z m 0,-36.17459 h 29.70298 v 24.22702 h -29.70298 z m 99.89497,87.28364 q -9.29256,0 -14.0218,3.15283 -4.64628,3.15283 -4.64628,9.29256 0,5.6419 3.73362,8.87771 3.81658,3.15283 10.53709,3.15283 8.37989,0 14.10477,-5.97379 5.72488,-6.05675 5.72488,-15.1004 v -3.40174 z m 45.384174,-11.20085 v 53.01735 h -29.951894 v -13.7729 q -5.97379,8.46287 -13.44102,12.36242 -7.46723,3.81659 -18.17026,3.81659 -14.43665,0 -23.4803,-8.3799 -8.96068,-8.46286 -8.96068,-21.90388 0,-16.34494 11.20085,-23.97811 11.28382,-7.63317 35.3449,-7.63317 h 17.50651 v -2.32314 q 0,-7.05238 -5.55894,-10.28818 -5.55894,-3.31877 -17.34057,-3.31877 -9.54146,0 -17.75542,1.90829 -8.21395,1.90829 -15.26634,5.72488 v -22.6506 q 9.54146,-2.32314 19.16589,-3.48471 9.62444,-1.24454 19.24887,-1.24454 25.139679,0 36.257557,9.95631 11.200847,9.87334 11.200847,32.19206 z M 56.500273,394.70454 q -9.87334,0 -15.100402,7.13536 -5.144093,7.05238 -5.144093,20.41043 0,13.35805 5.144093,20.4934 5.227062,7.05239 15.100402,7.05239 9.707401,0 14.851494,-7.05239 5.144093,-7.13535 5.144093,-20.4934 0,-13.35805 -5.144093,-20.41043 -5.144093,-7.13536 -14.851494,-7.13536 z m 0,-21.24012 q 23.97811,0 37.419127,12.9432 13.52399,12.9432 13.52399,35.84271 0,22.89951 -13.52399,35.84271 -13.441017,12.94321 -37.419127,12.94321 -24.06108,0 -37.668036,-12.94321 -13.5239858,-12.9432 -13.5239858,-35.84271 0,-22.89951 13.5239858,-35.84271 13.606956,-12.9432 37.668036,-12.9432 z m 165.938487,38.5807 v 56.58502 h -29.86892 v -9.20959 -34.10036 q 0,-12.03054 -0.58079,-16.59384 -0.49781,-4.56331 -1.82532,-6.72051 -1.74235,-2.90393 -4.72925,-4.48034 -2.98689,-1.65939 -6.80347,-1.65939 -9.29256,0 -14.60259,7.21833 -5.31003,7.13535 -5.31003,19.82965 v 45.71605 H 129.0154 v -92.92555 h 29.70299 v 13.60695 q 6.72051,-8.13098 14.27071,-11.94757 7.5502,-3.89955 16.67681,-3.89955 16.09604,0 24.39296,9.87334 8.37989,9.87334 8.37989,28.70736 z m 73.26184,-67.28806 h 114.16568 v 24.14405 H 368.7965 v 99.72903 H 336.85335 V 368.90111 H 295.7006 Z m 130.67655,0 h 53.01734 q 23.64624,0 36.25756,10.53709 12.69429,10.45413 12.69429,29.86893 0,19.49777 -12.69429,30.03487 -12.61132,10.45412 -36.25756,10.45412 h -21.07418 v 42.97807 h -31.94316 z m 31.94316,23.14842 v 34.59817 h 17.67244 q 9.29256,0 14.35368,-4.48034 5.06113,-4.5633 5.06113,-12.86023 0,-8.29692 -5.06113,-12.77726 -5.06112,-4.48034 -14.35368,-4.48034 z m 92.59364,-23.14842 h 31.94316 v 74.25747 q 0,15.34931 4.97815,21.98685 5.06113,6.55457 16.42791,6.55457 11.44976,0 16.42791,-6.55457 5.06113,-6.63754 5.06113,-21.98685 v -74.25747 h 31.94316 v 74.25747 q 0,26.30125 -13.19211,39.16148 -13.19211,12.86024 -40.24009,12.86024 -26.965,0 -40.15711,-12.86024 -13.19211,-12.86023 -13.19211,-39.16148 z"
       id="text1"
       transform="matrix(0.23876873,0,0,0.23873937,309.88226,-15.986015)"
       aria-label="Julia on TPU" />
    <path
       style="font-weight:bold;font-size:85.3333px;line-height:0.9;font-family:'DejaVu Sans Mono';-inkscape-font-specification:'DejaVu Sans Mono Bold';letter-spacing:-1px;word-spacing:0px;white-space:pre;stroke-width:51.1068;stroke-linejoin:round;paint-order:stroke markers fill"
       d="m 600.55467,166.90819 q 1.83334,0.375 3.16667,1.75 1.375,1.33333 3.33333,5.24999 l 11.25,22.375 h -13.5 l -7.5,-15.70833 q -0.33333,-0.66667 -0.87499,-1.83333 -3.29167,-7.04167 -7.75,-7.04167 h -3.91667 v 24.58333 h -12.29166 v -62.20831 h 17.74999 q 12,0 17.20833,4.25 5.25,4.24999 5.25,13.83332 0,6.41667 -3.125,10.20833 -3.125,3.79167 -9,4.54167 z M 584.76301,144.4082 v 16.95832 h 5.79167 q 5.04166,0 7.20833,-1.95833 2.20833,-2 2.20833,-6.54166 0,-4.54167 -2.16667,-6.5 -2.16666,-1.95833 -7.24999,-1.95833 z m 78.4583,49.58331 q -4.25,1.75 -8.66666,2.625 -4.41667,0.875 -9.33333,0.875 -11.70833,0 -17.91666,-6.25 -6.16666,-6.29166 -6.16666,-18.08332 0,-11.41667 5.95833,-18.04166 5.95833,-6.625 16.24999,-6.625 10.375,0 16.08333,6.16666 5.74999,6.125 5.74999,17.29166 v 4.95833 h -31.62498 q 0.0417,5.5 3.25,8.20833 3.20833,2.70834 9.58333,2.70834 4.20833,0 8.29166,-1.20834 4.08333,-1.20833 8.54166,-3.83333 z m -10.33333,-26.24999 q -0.0833,-4.83333 -2.5,-7.29166 -2.37499,-2.5 -7.04166,-2.5 -4.20833,0 -6.70833,2.58333 -2.5,2.54167 -2.95833,7.25 z m 33.20832,21.95832 v 24.33333 h -12.16666 v -64.41664 h 12.16666 v 7 q 1.91667,-4.04167 5.04167,-6.08334 3.12499,-2.04166 7.33333,-2.04166 7.99999,0 12.41666,6.41666 4.41666,6.41667 4.41666,18.08333 0,11.83333 -4.5,18.16666 -4.45833,6.33333 -12.74999,6.33333 -3.75,0 -6.75,-1.91667 -2.95833,-1.95833 -5.20833,-5.875 z m 16.99999,-16.79165 q 0,-6.75 -2.25,-10.58333 -2.24999,-3.83334 -6.20833,-3.83334 -3.95833,0 -6.24999,3.83334 -2.29167,3.83333 -2.29167,10.58333 0,6.74999 2.29167,10.58332 2.29166,3.83334 6.24999,3.83334 3.95834,0 6.20833,-3.83334 2.25,-3.83333 2.25,-10.58332 z m 62.91665,-10.41667 q -2,-1.83333 -4.70833,-2.75 -2.66667,-0.91666 -5.875,-0.91666 -3.875,0 -6.79166,1.375 -2.875,1.33333 -4.45833,3.91666 -1,1.58333 -1.41667,3.83333 -0.375,2.25 -0.375,6.83333 v 21.5 h -12.20833 v -46.66665 h 12.20833 v 7.25 q 1.79167,-4 5.5,-6.16667 3.70833,-2.20833 8.66666,-2.20833 2.5,0 4.875,0.625 2.41666,0.58333 4.58333,1.75 z m 28.08331,-4.08333 q -4.375,0 -6.875,3.875 -2.49999,3.83333 -2.49999,10.70833 0,6.875 2.49999,10.74999 2.5,3.83334 6.875,3.83334 4.41667,0 6.91667,-3.83334 2.49999,-3.87499 2.49999,-10.74999 0,-6.875 -2.49999,-10.70833 -2.5,-3.875 -6.91667,-3.875 z m -21.58332,14.58333 q 0,-11.29166 5.83333,-17.87499 5.875,-6.625 15.74999,-6.625 9.91666,0 15.75,6.625 5.87499,6.58333 5.87499,17.87499 0,11.29166 -5.87499,17.91666 -5.83334,6.58333 -15.75,6.58333 -9.87499,0 -15.74999,-6.58333 -5.83333,-6.625 -5.83333,-17.91666 z m 79.24996,-16.74999 v -24.79166 h 12.16666 v 64.83331 h -12.16666 v -6.91667 q -1.95834,4.04167 -5.08334,6.08333 -3.08333,2.04167 -7.29166,2.04167 -8,0 -12.41666,-6.41667 -4.41667,-6.41666 -4.41667,-18.08332 0,-11.83333 4.45834,-18.16666 4.49999,-6.33333 12.79166,-6.33333 3.75,0 6.70833,1.95833 3,1.91667 5.25,5.79167 z m -17,16.83332 q 0,6.75 2.25,10.58333 2.25,3.83333 6.20833,3.83333 3.95833,0 6.25,-3.83333 2.29167,-3.83333 2.29167,-10.58333 0,-6.75 -2.29167,-10.58333 -2.29167,-3.83333 -6.25,-3.83333 -3.95833,0 -6.20833,3.83333 -2.25,3.83333 -2.25,10.58333 z m 41.08334,6.91667 v -30.37499 h 12.20833 v 28.49999 q 0,5.04166 1.41666,7.20833 1.41667,2.16666 4.70833,2.16666 3.29167,0 5.125,-2.91666 1.875,-2.91667 1.875,-8.16667 v -26.79165 h 12.20833 v 46.66665 h -12.20833 v -6.91667 q -1.29166,3.875 -4.41666,6 -3.08333,2.125 -7.45833,2.125 -6.66667,0 -10.08333,-4.41667 -3.375,-4.41666 -3.375,-13.08332 z m 87.91662,13.91666 q -3.08333,1.79166 -6.625,2.66666 -3.54166,0.91667 -7.62499,0.91667 -10.79167,0 -16.875,-6.5 -6.08333,-6.5 -6.08333,-17.99999 0,-11.54166 6.125,-18.04166 6.125,-6.54166 16.91666,-6.54166 3.75,0 7.20833,0.875 3.5,0.87499 6.95833,2.70833 v 11.16666 q -2.66667,-2.29167 -5.875,-3.5 -3.16666,-1.25 -6.58333,-1.25 -5.95833,0 -9.16666,3.79167 -3.20833,3.79166 -3.20833,10.79166 0,7 3.20833,10.74999 3.20833,3.75 9.16666,3.75 3.54167,0 6.625,-1.16666 3.08333,-1.20834 5.83333,-3.625 z m 15.37498,-44.29165 h 24.16667 v 37.29165 h 15.1667 v 9.375 h -42.58336 v -9.375 h 15.20832 v -27.91666 h -11.95833 z m 11.95833,-22.70833 h 12.20834 v 14.25 h -12.20834 z m 64.62494,46.16665 q 0,-6.75 -2.25,-10.58333 -2.25,-3.83333 -6.2083,-3.83333 -3.9583,0 -6.25,3.83333 -2.2917,3.83333 -2.2917,10.58333 0,6.75 2.2917,10.58333 2.2917,3.83333 6.25,3.83333 3.9583,0 6.2083,-3.83333 2.25,-3.83333 2.25,-10.58333 z m -17,-16.83332 q 2.25,-3.875 5.2084,-5.79167 3,-1.95833 6.75,-1.95833 8.2916,0 12.75,6.33333 4.5,6.33333 4.5,18.16666 0,11.66666 -4.4167,18.08332 -4.4167,6.41667 -12.4167,6.41667 -4.2083,0 -7.3333,-2.04167 -3.125,-2.04166 -5.0417,-6.08333 v 6.91667 h -12.1666 v -64.83331 h 12.1666 z m 48.0833,20.58332 v -35.99998 h -12.375 v -9.375 h 24.5834 v 45.37498 q 0,5.5 1.7083,7.79166 1.7083,2.29167 5.7917,2.29167 h 9.75 v 9.375 h -13.1667 q -8.7083,0 -12.5,-4.5 -3.7917,-4.5 -3.7917,-14.95833 z m 80.1667,17.16666 q -4.25,1.75 -8.6667,2.625 -4.4166,0.875 -9.3333,0.875 -11.7083,0 -17.9167,-6.25 -6.1666,-6.29166 -6.1666,-18.08332 0,-11.41667 5.9583,-18.04166 5.9583,-6.625 16.25,-6.625 10.375,0 16.0833,6.16666 5.75,6.125 5.75,17.29166 v 4.95833 h -31.625 q 0.042,5.5 3.25,8.20833 3.2084,2.70834 9.5834,2.70834 4.2083,0 8.2916,-1.20834 4.0834,-1.20833 8.5417,-3.83333 z m -10.3333,-26.24999 q -0.083,-4.83333 -2.5,-7.29166 -2.375,-2.5 -7.0417,-2.5 -4.2083,0 -6.7083,2.58333 -2.5,2.54167 -2.9584,7.25 z m 110.9166,28.54166 h -38.75 v -62.20831 h 38.75 v 10.83333 h -26.4584 v 13.41666 h 23.9584 v 10.83333 h -23.9584 v 16.29166 h 26.4584 z m 52.3333,-46.66665 -15.7083,22.33332 17.0833,24.33333 h -14.25 l -9.1667,-15.70833 -9.125,15.70833 h -14.25 l 17.25,-24.33333 -15.875,-22.33332 h 14.25 l 7.75,13.91666 7.7917,-13.91666 z m 31.8333,24.74999 q -6.8334,0 -9.5417,1.75 -2.7083,1.75 -2.7083,5.99999 0,3.16667 1.875,5.04167 1.875,1.875 5.0833,1.875 4.8333,0 7.5,-3.625 2.6667,-3.66667 2.6667,-10.20833 v -0.83333 z m 17,-4.70833 v 26.62499 h -12.125 v -5.20834 q -2.2084,3.08334 -5.6667,4.75 -3.4583,1.66667 -7.625,1.66667 -7.9583,0 -12.4166,-4.20833 -4.4167,-4.20833 -4.4167,-11.75 0,-8.16666 5.2917,-12.04166 5.2916,-3.91667 16.3749,-3.91667 h 8.4584 v -2.04166 q 0,-2.95833 -2.1667,-4.45833 -2.125,-1.54167 -6.2917,-1.54167 -4.375,0 -8.5,1.125 -4.0833,1.08333 -8.5416,3.5 v -10.41666 q 4.0416,-1.66667 8.2083,-2.45833 4.1667,-0.79167 8.8333,-0.79167 11.375,0 15.9584,4.625 4.625,4.62499 4.625,16.54166 z m 32.9583,-15.375 q 1.375,-2.95833 3.5,-4.375 2.125,-1.41666 5.2083,-1.41666 6.0417,0 8.3334,4.16666 2.3333,4.16667 2.3333,17.33333 v 26.29166 h -10 v -29.95833 q 0,-5.20833 -0.7917,-6.95833 -0.7916,-1.75 -2.875,-1.75 -2.0833,0 -2.9166,1.79167 -0.8334,1.79167 -0.8334,6.91666 v 29.95833 h -9.875 v -29.95833 q 0,-5.12499 -0.8333,-6.91666 -0.8333,-1.79167 -2.9167,-1.79167 -2.0833,0 -2.875,1.75 -0.7916,1.75 -0.7916,6.95833 v 29.95833 h -10 v -46.66665 h 8.875 v 4.83333 q 1.0416,-2.75 3.3333,-4.33333 2.2917,-1.625 5.125,-1.625 2.8333,0 5.1667,1.70833 2.3333,1.66667 2.8333,4.08333 z m 40.0417,35.41665 v 24.33333 h -12.1667 v -64.41664 h 12.1667 v 7 q 1.9166,-4.04167 5.0416,-6.08334 3.125,-2.04166 7.3334,-2.04166 8,0 12.4166,6.41666 4.4167,6.41667 4.4167,18.08333 0,11.83333 -4.5,18.16666 -4.4583,6.33333 -12.75,6.33333 -3.75,0 -6.75,-1.91667 -2.9583,-1.95833 -5.2083,-5.875 z m 17,-16.79165 q 0,-6.75 -2.25,-10.58333 -2.25,-3.83334 -6.2084,-3.83334 -3.9583,0 -6.25,3.83334 -2.2916,3.83333 -2.2916,10.58333 0,6.74999 2.2916,10.58332 2.2917,3.83334 6.25,3.83334 3.9584,0 6.2084,-3.83334 2.25,-3.83333 2.25,-10.58332 z m 31.0833,3.91666 v -35.99998 h -12.375 v -9.375 h 24.5833 v 45.37498 q 0,5.5 1.7083,7.79166 1.7083,2.29167 5.7917,2.29167 h 9.75 v 9.375 h -13.1667 q -8.7083,0 -12.5,-4.5 -3.7916,-4.5 -3.7916,-14.95833 z m 80.1666,17.16666 q -4.25,1.75 -8.6667,2.625 -4.4166,0.875 -9.3333,0.875 -11.7083,0 -17.9166,-6.25 -6.1667,-6.29166 -6.1667,-18.08332 0,-11.41667 5.9583,-18.04166 5.9584,-6.625 16.25,-6.625 10.375,0 16.0833,6.16666 5.75,6.125 5.75,17.29166 v 4.95833 h -31.6249 q 0.042,5.5 3.25,8.20833 3.2083,2.70834 9.5833,2.70834 4.2083,0 8.2916,-1.20834 4.0834,-1.20833 8.5417,-3.83333 z m -10.3333,-26.24999 q -0.083,-4.83333 -2.5,-7.29166 -2.375,-2.5 -7.0417,-2.5 -4.2083,0 -6.7083,2.58333 -2.5,2.54167 -2.9583,7.25 z m 56.0832,-16.66666 v 10.66666 q -3.3749,-2.16666 -7.0416,-3.25 -3.625,-1.125 -7.2917,-1.125 -4.0833,0 -6.1666,1.20834 -2.0834,1.16666 -2.0834,3.5 0,3.33333 8.9167,5.41666 l 0.4583,0.125 3.5,0.83333 q 6.6667,1.58334 9.75,5.125 3.125,3.5 3.125,9.5 0,7.20833 -4.75,10.83333 -4.7083,3.58333 -14.2083,3.58333 -4.2083,0 -8.625,-0.75 -4.4167,-0.70833 -8.9583,-2.16667 v -10.66666 q 4.0416,2.29167 8.2083,3.5 4.2083,1.20833 8.125,1.20833 4.2917,0 6.5,-1.25 2.2083,-1.25 2.2083,-3.625 0,-2.33333 -1.5833,-3.58333 -1.5417,-1.25 -7.4167,-2.66666 l -3.375,-0.75 q -7,-1.58334 -10.2083,-4.95833 -3.2083,-3.375 -3.2083,-9.04167 0,-6.74999 4.875,-10.49999 4.875,-3.75 13.7083,-3.75 3.9583,0 7.875,0.66667 3.9583,0.62499 7.6666,1.91666 z M 596.09634,254.59982 q -6.83333,0 -9.54166,1.75 -2.70833,1.75 -2.70833,6 0,3.16667 1.875,5.04167 1.875,1.875 5.08333,1.875 4.83333,0 7.49999,-3.625 2.66667,-3.66667 2.66667,-10.20833 v -0.83334 z m 16.99999,-4.70833 v 26.62499 h -12.12499 v -5.20833 q -2.20833,3.08333 -5.66666,4.75 -3.45834,1.66667 -7.625,1.66667 -7.95833,0 -12.41666,-4.20834 -4.41667,-4.20833 -4.41667,-11.74999 0,-8.16666 5.29167,-12.04166 5.29166,-3.91667 16.37499,-3.91667 h 8.45833 v -2.04166 q 0,-2.95834 -2.16667,-4.45834 -2.12499,-1.54166 -6.29166,-1.54166 -4.375,0 -8.5,1.125 -4.08333,1.08333 -8.54166,3.5 v -10.41667 q 4.04167,-1.66666 8.20833,-2.45833 4.16667,-0.79166 8.83333,-0.79166 11.375,0 15.95833,4.62499 4.62499,4.625 4.62499,16.54166 z m 48.83332,-3.66666 v 30.29165 h -12.125 v -28.41665 q 0,-5.08333 -1.45833,-7.25 -1.41667,-2.20833 -4.66667,-2.20833 -3.29166,0 -5.20833,2.95833 -1.875,2.95833 -1.875,8.20833 v 26.70832 h -12.12499 v -46.66664 h 12.12499 v 6.99999 q 1.29167,-3.875 4.41667,-6 3.125,-2.12499 7.54166,-2.12499 6.625,0 10,4.41666 3.375,4.375 3.375,13.08333 z m 38.70831,-9.75 v -24.79165 h 12.16666 v 64.8333 h -12.16666 v -6.91666 q -1.95833,4.04166 -5.08333,6.08333 -3.08333,2.04167 -7.29166,2.04167 -8,0 -12.41667,-6.41667 -4.41666,-6.41666 -4.41666,-18.08332 0,-11.83333 4.45833,-18.16666 4.5,-6.33333 12.79166,-6.33333 3.75,0 6.70833,1.95833 3,1.91666 5.25,5.79166 z m -16.99999,16.83333 q 0,6.75 2.25,10.58333 2.25,3.83333 6.20833,3.83333 3.95833,0 6.25,-3.83333 2.29166,-3.83333 2.29166,-10.58333 0,-6.75 -2.29166,-10.58333 -2.29167,-3.83333 -6.25,-3.83333 -3.95833,0 -6.20833,3.83333 -2.25,3.83333 -2.25,10.58333 z m 101.87495,-5.04167 v 18.41666 h 8.16667 q 5.87499,0 8.20833,-2 2.37499,-2 2.37499,-6.95833 0,-5.04166 -2.45833,-7.24999 -2.45833,-2.20834 -8.12499,-2.20834 z m 0,-24.24999 v 14.45833 h 8.16667 q 4.66666,0 6.62499,-1.66666 2,-1.66667 2,-5.5 0,-3.83333 -2.04166,-5.54167 -2,-1.75 -6.58333,-1.75 z m -11.87499,-9.79166 h 20.04166 q 10.37499,0 15.58332,3.95833 5.25,3.91667 5.25,11.75 0,6 -3.08333,9.37499 -3.08333,3.375 -9.04166,3.91667 7.12499,0.70833 10.70832,4.79166 3.625,4.08334 3.625,11.41667 0,8.99999 -5.41666,13.04166 -5.41667,4.04166 -17.62499,4.04166 h -20.04166 z m 91.08328,59.99998 q -4.25,1.75 -8.66666,2.625 -4.41666,0.875 -9.33333,0.875 -11.70833,0 -17.91666,-6.25 -6.16666,-6.29167 -6.16666,-18.08333 0,-11.41666 5.95833,-18.04166 5.95833,-6.62499 16.24999,-6.62499 10.375,0 16.08333,6.16666 5.75,6.125 5.75,17.29166 v 4.95833 h -31.62499 q 0.0417,5.5 3.25,8.20833 3.20833,2.70833 9.58333,2.70833 4.20833,0 8.29166,-1.20833 4.08333,-1.20833 8.54166,-3.83333 z m -10.33333,-26.24999 q -0.0833,-4.83333 -2.5,-7.29167 -2.37499,-2.5 -7.04166,-2.5 -4.20833,0 -6.70833,2.58334 -2.5,2.54166 -2.95833,7.24999 z m 59.41667,-1.75 v 30.29165 h -12.125 v -28.41665 q 0,-5.08333 -1.45833,-7.25 -1.41667,-2.20833 -4.66667,-2.20833 -3.29166,0 -5.20833,2.95833 -1.875,2.95833 -1.875,8.20833 v 26.70832 h -12.12499 v -46.66664 h 12.12499 v 6.99999 q 1.29167,-3.875 4.41667,-6 3.125,-2.12499 7.54166,-2.12499 6.625,0 10,4.41666 3.375,4.375 3.375,13.08333 z m 49.9583,27.91665 q -3.08333,1.79167 -6.625,2.66667 -3.54166,0.91667 -7.62499,0.91667 -10.79167,0 -16.875,-6.5 -6.08333,-6.5 -6.08333,-17.99999 0,-11.54167 6.125,-18.04166 6.125,-6.54167 16.91666,-6.54167 3.75,0 7.20833,0.875 3.5,0.875 6.95833,2.70833 v 11.16667 q -2.66667,-2.29167 -5.875,-3.5 -3.16666,-1.25 -6.58333,-1.25 -5.95833,0 -9.16666,3.79166 -3.20833,3.79167 -3.20833,10.79167 0,6.99999 3.20833,10.74999 3.20833,3.75 9.16666,3.75 3.54167,0 6.625,-1.16667 3.08333,-1.20833 5.83333,-3.625 z m 50.79165,-27.91665 v 30.29165 h -12.125 v -28.41665 q 0,-5.04167 -1.4583,-7.20833 -1.41671,-2.16667 -4.66671,-2.16667 -3.33333,0 -5.20833,2.95833 -1.875,2.91667 -1.875,8.125 v 26.70832 h -12.12499 v -64.8333 h 12.12499 v 25.16665 q 1.29167,-3.875 4.41667,-6 3.125,-2.12499 7.54167,-2.12499 6.625,0 10,4.41666 3.375,4.375 3.375,13.08333 z m 34.5,-11.70833 q 1.375,-2.95833 3.5,-4.375 2.125,-1.41666 5.2083,-1.41666 6.0417,0 8.3333,4.16666 2.3334,4.16667 2.3334,17.33333 v 26.29165 h -10 v -29.95832 q 0,-5.20833 -0.7917,-6.95833 -0.7917,-1.75 -2.875,-1.75 -2.0833,0 -2.9167,1.79167 -0.8333,1.79166 -0.8333,6.91666 v 29.95832 h -9.875 v -29.95832 q 0,-5.125 -0.8333,-6.91666 -0.8334,-1.79167 -2.9167,-1.79167 -2.0833,0 -2.875,1.75 -0.7917,1.75 -0.7917,6.95833 v 29.95832 h -10 v -46.66664 h 8.875 v 4.83333 q 1.0417,-2.75 3.3334,-4.33334 2.2916,-1.62499 5.125,-1.62499 2.8333,0 5.1666,1.70833 2.3334,1.66666 2.8334,4.08333 z m 50.7916,20.08332 q -6.8333,0 -9.5417,1.75 -2.7083,1.75 -2.7083,6 0,3.16667 1.875,5.04167 1.875,1.875 5.0833,1.875 4.8334,0 7.5,-3.625 2.6667,-3.66667 2.6667,-10.20833 v -0.83334 z m 17,-4.70833 v 26.62499 h -12.125 v -5.20833 q -2.2083,3.08333 -5.6667,4.75 -3.4583,1.66667 -7.625,1.66667 -7.9583,0 -12.4166,-4.20834 -4.4167,-4.20833 -4.4167,-11.74999 0,-8.16666 5.2917,-12.04166 5.2916,-3.91667 16.375,-3.91667 h 8.4583 v -2.04166 q 0,-2.95834 -2.1667,-4.45834 -2.125,-1.54166 -6.2916,-1.54166 -4.375,0 -8.5,1.125 -4.0834,1.08333 -8.5417,3.5 v -10.41667 q 4.0417,-1.66666 8.2083,-2.45833 4.1667,-0.79166 8.8334,-0.79166 11.375,0 15.9583,4.62499 4.625,4.625 4.625,16.54166 z m 52.1667,-7.16666 q -2,-1.83333 -4.7084,-2.75 -2.6666,-0.91667 -5.875,-0.91667 -3.875,0 -6.7916,1.375 -2.875,1.33334 -4.4584,3.91667 -1,1.58333 -1.4166,3.83333 -0.375,2.25 -0.375,6.83333 v 21.49999 h -12.2084 v -46.66664 h 12.2084 v 7.24999 q 1.7916,-4 5.5,-6.16666 3.7083,-2.20833 8.6666,-2.20833 2.5,0 4.875,0.625 2.4167,0.58333 4.5834,1.74999 z m 9.6666,-31.04165 h 12.2084 v 34.04165 l 14.6666,-15.87499 h 14.7917 l -17.6667,17.41665 18.6667,29.24999 h -13.5 l -12.7917,-21.83332 -4.1666,4 v 17.83332 h -12.2084 z m 84.4166,19.62499 v 10.66666 q -3.375,-2.16667 -7.0416,-3.25 -3.625,-1.125 -7.2917,-1.125 -4.0833,0 -6.1667,1.20833 -2.0833,1.16667 -2.0833,3.5 0,3.33334 8.9167,5.41667 l 0.4583,0.125 3.5,0.83333 q 6.6667,1.58333 9.75,5.125 3.125,3.5 3.125,9.49999 0,7.20833 -4.75,10.83333 -4.7083,3.58334 -14.2083,3.58334 -4.2084,0 -8.625,-0.75 -4.4167,-0.70834 -8.9584,-2.16667 v -10.66666 q 4.0417,2.29166 8.2084,3.5 4.2083,1.20833 8.125,1.20833 4.2916,0 6.5,-1.25 2.2083,-1.25 2.2083,-3.625 0,-2.33333 -1.5833,-3.58333 -1.5417,-1.25 -7.4167,-2.66667 l -3.375,-0.75 q -7,-1.58333 -10.2083,-4.95833 -3.2084,-3.375 -3.2084,-9.04166 0,-6.75 4.875,-10.5 4.875,-3.74999 13.7084,-3.74999 3.9583,0 7.875,0.66666 3.9583,0.625 7.6666,1.91667 z"
       id="text2"
       transform="matrix(0.26458333,0,0,0.26458333,42.894768,71.380324)"
       aria-label="Reproducible Examples&#10;and Benchmarks" />
  </g>
</svg>
